<?xml version="1.0" encoding="UTF-8"?>
<svg id="Layer_1" xmlns="http://www.w3.org/2000/svg" version="1.1" viewBox="0 0 595.28 841.89">
  <!-- Generator: Adobe Illustrator 30.0.0, SVG Export Plug-In . SVG Version: 2.1.1 Build 123)  -->
  <defs>
    <style>
      .st0 {
        fill: #58b947;
      }

      .st1 {
        fill: #158bcc;
      }

      .st2 {
        fill: #3c3b3c;
      }
    </style>
  </defs>
  <circle class="st2" cx="297.64" cy="397.45" r="288"/>
  <g>
    <path class="st0" d="M313.78,317.04h-24.93c-2.36,0-4.4,1.59-4.96,3.88l-2.16,8.59-14.76,63.92-4.78,20.01-7.56,31.63-49.52-117.56-2.74-7.18c-.77-1.97-2.68-3.28-4.78-3.28h-17.03c-2.1,0-4.02,1.32-4.77,3.29l-2.68,7.01-24.49,59.81-2.49,6.07-21.7,51.9-28.03-115.65-2.12-8.54c-.57-2.28-2.61-3.88-4.96-3.88h-24.94c-1.57,0-3.08.73-4.02,1.96-.96,1.21-1.32,2.85-.94,4.39l3.34,13.47,40.15,165.42,2.13,8.54c.57,2.28,2.61,3.88,4.96,3.88h18.25c2.1,0,4.02-1.32,4.77-3.29l2.68-7.01,30.94-75.38,1.02-2.45,20.96-50.16,53.78,127.84,2.73,7.17c.77,1.97,2.68,3.29,4.78,3.29h18.25c2.35,0,4.39-1.6,4.96-3.88l2.15-8.58,40.13-165.36,3.34-13.5c.39-1.53.04-3.17-.92-4.39-.96-1.24-2.47-1.97-4.03-1.97Z"/>
    <path class="st1" d="M535.71,319.42c-.94-1.49-2.56-2.38-4.32-2.38h-26.45c-1.94,0-3.69,1.07-4.57,2.8l-3.41,6.74-38.13,81.85-.46.98-23.85,50.44-64.02-133.38-3.34-6.62c-.87-1.74-2.61-2.81-4.57-2.81h-26.46c-1.77,0-3.39.89-4.33,2.39-.94,1.5-1.05,3.34-.29,4.92l7.3,15.47,79.43,165.49,3.34,6.62c.89,1.73,2.63,2.81,4.57,2.81h15.82c1.94,0,3.69-1.08,4.57-2.81l3.4-6.73,78.8-165.39,7.28-15.44"/>
  </g>
</svg>